# xmcd CD database file
#
# Track frame offsets:
#	150
#	18100
#	34665
#	52672
#	74380
#	101005
#	116135
#	132242
#	156305
#	174232
#
# Disc length: 2499 seconds
#
# Revision: 0
# Processed by: cddbd v1.5.1PL0 Copyright (c) Steve Scherf et al.
# Submitted via: CDex 1.51
#
DISCID=7a09c10a
DTITLE=五十嵐浩晃 - NATURAL ROAD
DYEAR=1980
DGENRE=New Age
TTITLE0=ペガサスの朝
TTITLE1=フォギー・ナイト
TTITLE2=小さな朝日
TTITLE3=雪が降る前に
TTITLE4=ナチュラル・ロード
TTITLE5=ブリージー・ナイト
TTITLE6=流星群
TTITLE7=イノセント
TTITLE8=いつまでも
TTITLE9=幸せいろのなみだ
EXTD=YEAR: 1980
EXTT0=
EXTT1=
EXTT2=
EXTT3=
EXTT4=
EXTT5=
EXTT6=
EXTT7=
EXTT8=
EXTT9=
PLAYORDER=
